<?xml version="1.0" standalone="no"?>
<!DOCTYPE svg PUBLIC "-//W3C//DTD SVG 20010904//EN"
 "http://www.w3.org/TR/2001/REC-SVG-20010904/DTD/svg10.dtd">
<svg version="1.0" xmlns="http://www.w3.org/2000/svg"
 width="460.000000pt" height="204.000000pt" viewBox="0 0 460.000000 204.000000"
 preserveAspectRatio="xMidYMid meet">

<g transform="translate(0.000000,204.000000) scale(0.100000,-0.100000)"
fill="#000000" stroke="none">
<path d="M2249 2015 c-630 -83 -1131 -193 -1455 -320 l-89 -35 103 103 c95 95
118 127 92 127 -19 0 -183 -66 -260 -105 -113 -56 -186 -102 -277 -172 -100
-77 -165 -154 -209 -248 -31 -66 -60 -188 -48 -206 3 -5 19 -7 37 -4 18 2 61
7 97 10 247 23 653 170 946 342 127 75 814 350 1157 463 78 25 127 47 124 53
-6 18 -28 17 -218 -8z"/>
<path d="M79 1907 c-50 -33 -74 -88 -73 -167 0 -40 7 -77 17 -96 66 -126 209
-108 254 32 50 158 -80 310 -198 231z"/>
<path d="M2125 1315 c-42 -20 -59 -35 -84 -75 -38 -63 -19 -155 38 -184 124
-65 289 74 237 198 -28 66 -118 95 -191 61z m101 -80 c29 -29 26 -56 -11 -94
-62 -63 -149 6 -99 77 32 45 75 52 110 17z"/>
<path d="M1580 1315 c0 -10 31 -221 35 -242 5 -19 12 -23 43 -23 37 0 39 2 73
71 l34 72 8 -49 c16 -98 14 -94 56 -94 l38 0 57 123 c32 67 60 128 63 135 4 8
-7 12 -35 12 l-39 0 -34 -76 c-36 -84 -41 -83 -53 19 -7 56 -8 57 -40 57 -31
0 -35 -4 -67 -75 -19 -41 -37 -74 -41 -75 -5 0 -8 17 -8 38 0 20 -3 54 -6 75
-6 35 -8 37 -45 37 -22 0 -39 -2 -39 -5z"/>
<path d="M2440 1313 c0 -5 -9 -62 -20 -128 -11 -66 -20 -123 -20 -127 0 -5 18
-8 40 -8 37 0 40 2 40 28 0 50 15 56 35 12 17 -39 20 -40 66 -40 l49 0 -31 50
-31 50 31 29 c40 37 44 101 9 125 -23 17 -168 24 -168 9z m108 -75 c3 -16 -34
-45 -45 -34 -3 3 -2 17 1 31 7 29 39 31 44 3z"/>
<path d="M2750 1313 c0 -5 -9 -62 -20 -128 -11 -66 -20 -123 -20 -127 0 -5 36
-8 80 -8 62 0 80 3 80 14 0 8 3 21 6 30 5 13 -2 16 -35 16 -47 0 -47 1 -31 96
6 32 12 71 15 87 4 26 3 27 -35 27 -22 0 -40 -3 -40 -7z"/>
<path d="M2995 1308 c-2 -7 -12 -69 -23 -136 l-19 -124 81 4 c65 2 87 8 114
26 38 27 72 89 72 129 0 38 -34 91 -66 103 -38 15 -154 13 -159 -2z m133 -76
c18 -23 15 -56 -8 -85 -18 -22 -66 -44 -76 -34 -4 4 13 111 21 135 6 17 45 7
63 -16z"/>
<path d="M1148 1257 c-37 -77 -157 -186 -366 -332 l-115 -80 -154 -414 c-95
-256 -150 -418 -145 -423 17 -17 357 475 552 797 101 168 258 471 248 480 -2
3 -11 -10 -20 -28z"/>
<path d="M3295 832 c-90 -43 -129 -136 -90 -212 20 -39 63 -60 123 -60 109 0
198 119 158 214 -28 67 -115 94 -191 58z m112 -89 c15 -22 15 -27 1 -56 -20
-43 -60 -64 -96 -51 -58 20 -50 103 12 129 37 16 63 9 83 -22z"/>
<path d="M4394 831 c-88 -40 -123 -134 -81 -219 39 -81 203 -65 258 25 31 49
33 131 4 163 -44 50 -113 62 -181 31z m110 -80 c36 -39 -12 -121 -70 -121 -30
0 -64 43 -57 73 15 61 90 89 127 48z"/>
<path d="M1586 824 c-13 -35 -7 -54 19 -54 29 0 30 -7 15 -96 -6 -32 -12 -70
-14 -84 -4 -23 -1 -26 34 -27 38 -2 39 -1 45 40 27 173 25 167 56 167 16 0 29
5 29 13 0 6 3 22 6 35 6 22 5 22 -89 22 -77 0 -96 -3 -101 -16z"/>
<path d="M1853 706 c-40 -74 -73 -136 -73 -138 0 -2 18 -5 40 -6 34 -2 42 1
52 23 10 22 18 25 59 25 42 0 48 -3 51 -22 3 -20 10 -23 46 -24 29 -1 42 2 39
10 -2 6 -17 68 -32 139 l-28 127 -41 0 -41 0 -72 -134z m107 -12 c0 -17 -5
-24 -20 -24 -23 0 -24 1 -9 34 14 30 29 25 29 -10z"/>
<path d="M2156 718 c-9 -68 -20 -131 -22 -140 -4 -14 5 -16 73 -16 81 0 93 6
93 46 0 19 -5 22 -41 22 -33 0 -40 3 -37 18 2 12 16 19 43 22 37 5 40 8 43 39
3 33 3 33 -32 29 -29 -3 -36 -1 -36 13 0 14 10 19 43 21 39 3 42 5 45 36 l3
32 -78 0 -78 0 -19 -122z"/>
<path d="M2440 833 c0 -5 -9 -62 -20 -128 -26 -156 -27 -147 17 -143 38 3 38
4 47 57 l8 55 35 -57 35 -57 49 0 c37 0 48 3 43 13 -4 6 -25 38 -46 69 -21 31
-38 60 -38 65 0 4 28 36 62 70 l62 63 -49 0 c-48 0 -52 -2 -98 -52 -51 -57
-49 -58 -32 27 5 23 3 25 -35 25 -22 0 -40 -3 -40 -7z"/>
<path d="M2755 808 c6 -37 35 -236 35 -242 0 -2 16 -4 35 -4 33 0 38 4 65 57
47 91 47 90 60 14 l11 -70 35 -1 35 -1 69 139 69 140 -42 0 -43 0 -34 -79
c-19 -44 -36 -78 -37 -77 -2 1 -8 37 -14 79 l-11 77 -32 0 c-29 0 -33 -5 -65
-76 -35 -77 -51 -83 -51 -18 0 17 -3 46 -6 63 -6 28 -10 31 -46 31 -38 0 -39
0 -33 -32z"/>
<path d="M3610 833 c0 -5 -9 -62 -20 -128 -11 -66 -20 -125 -20 -132 0 -6 15
-10 37 -10 36 2 38 3 45 47 4 25 10 60 13 78 l6 33 48 -78 c43 -72 50 -78 83
-81 42 -4 34 -23 67 171 l18 107 -37 0 c-43 0 -46 -4 -56 -89 -3 -33 -10 -58
-15 -55 -5 3 -27 36 -50 74 -40 67 -43 70 -80 70 -22 0 -39 -3 -39 -7z"/>
<path d="M3976 728 c-10 -62 -20 -125 -23 -141 l-6 -27 78 4 c61 4 86 11 116
31 92 60 96 187 8 232 -13 7 -54 13 -90 13 l-66 0 -17 -112z m142 30 c7 -7 12
-27 12 -45 0 -40 -37 -83 -71 -83 -20 0 -21 3 -14 48 12 82 16 92 39 92 12 0
27 -5 34 -12z"/>
</g>
</svg>
